<svg id="Layer_1" data-name="Layer 1" xmlns="http://www.w3.org/2000/svg" xmlns:xlink="http://www.w3.org/1999/xlink" width="20" height="20" viewBox="0 0 20 20"><defs><clipPath id="clip-path" transform="translate(0)"><circle cx="10" cy="10" r="10" fill="none"/></clipPath><linearGradient id="linear-gradient" x1="9.42" y1="163.38" x2="15.39" y2="166.87" gradientTransform="matrix(1, 0, 0, -1, -7, 171)" gradientUnits="userSpaceOnUse"><stop offset="0" stop-color="#a52714" stop-opacity="0.6"/><stop offset="0.66" stop-color="#a52714" stop-opacity="0"/></linearGradient><linearGradient id="linear-gradient-2" x1="18.69" y1="153.22" x2="12.06" y2="157.1" gradientTransform="matrix(1, 0, 0, -1, -7, 171)" gradientUnits="userSpaceOnUse"><stop offset="0" stop-color="#055524" stop-opacity="0.4"/><stop offset="0.33" stop-color="#055524" stop-opacity="0"/></linearGradient><clipPath id="clip-path-6" transform="translate(0)"><polygon points="0 20 9.52 20 13.94 15.58 13.94 12.27 6.06 12.27 0 1.87 0 20" fill="none"/></clipPath><linearGradient id="linear-gradient-3" x1="19.94" y1="166.25" x2="21.61" y2="158.94" gradientTransform="matrix(1, 0, 0, -1, -7, 171)" gradientUnits="userSpaceOnUse"><stop offset="0" stop-color="#ea6100" stop-opacity="0.3"/><stop offset="0.66" stop-color="#ea6100" stop-opacity="0"/></linearGradient><clipPath id="clip-path-9" transform="translate(0)"><polygon points="10 5.46 13.94 12.27 9.52 20 20 20 20 5.46 10 5.46" fill="none"/></clipPath><radialGradient id="radial-gradient" cx="592.57" cy="165.55" r="9.55" gradientTransform="matrix(1, 0, 0, -1, -583, 171)" gradientUnits="userSpaceOnUse"><stop offset="0" stop-color="#3e2723" stop-opacity="0.2"/><stop offset="1" stop-color="#3e2723" stop-opacity="0"/></radialGradient><clipPath id="clip-path-12" transform="translate(0)"><polygon points="1.59 0 1.59 4.58 6.06 12.27 10 5.46 20 5.46 20 0 1.59 0" fill="none"/></clipPath><radialGradient id="radial-gradient-2" cx="584.58" cy="166.4" r="8.87" xlink:href="#radial-gradient"/><radialGradient id="radial-gradient-3" cx="592.98" cy="160.98" r="9.99" gradientTransform="matrix(1, 0, 0, -1, -583, 171)" gradientUnits="userSpaceOnUse"><stop offset="0" stop-color="#263238" stop-opacity="0.2"/><stop offset="1" stop-color="#263238" stop-opacity="0"/></radialGradient><radialGradient id="radial-gradient-4" cx="9.99" cy="168.27" r="20.09" gradientTransform="matrix(1, 0, 0, -1, -7, 171)" gradientUnits="userSpaceOnUse"><stop offset="0" stop-color="#fff" stop-opacity="0.1"/><stop offset="1" stop-color="#fff" stop-opacity="0"/></radialGradient></defs><g clip-path="url(#clip-path)"><path d="M1.59,0V12.27H6.06L10,5.45H20V0Z" transform="translate(0)" fill="#db4437"/><path d="M1.59,0V12.27H6.06L10,5.45H20V0Z" transform="translate(0)" fill="url(#linear-gradient)"/></g><g clip-path="url(#clip-path)"><path d="M6.17,12.23,1.65,4.47l-.07.11,4.49,7.71Z" transform="translate(0)" fill="#3e2723" fill-opacity="0.15"/></g><g clip-path="url(#clip-path)"><path d="M0,20H9.52l4.42-4.42V12.27H6.06L0,1.87Z" transform="translate(0)" fill="#0f9d58"/><path d="M0,20H9.52l4.42-4.42V12.27H6.06L0,1.87Z" transform="translate(0)" fill="url(#linear-gradient-2)"/></g><g clip-path="url(#clip-path)"><path d="M13.85,12.42l-.1-.05L9.39,20h.13l4.33-7.57Z" transform="translate(0)" fill="#263238" fill-opacity="0.15"/></g><g clip-path="url(#clip-path)"><g clip-path="url(#clip-path-6)"><path d="M10,5.45l3.94,6.82L9.52,20H20V5.45Z" transform="translate(0)" fill="#ffcd40"/><path d="M10,5.45l3.94,6.82L9.52,20H20V5.45Z" transform="translate(0)" fill="url(#linear-gradient-3)"/></g></g><g clip-path="url(#clip-path)"><path d="M10,5.45l3.94,6.82L9.52,20H20V5.45Z" transform="translate(0)" fill="#ffcd40"/><path d="M10,5.45l3.94,6.82L9.52,20H20V5.45Z" transform="translate(0)" fill="url(#linear-gradient-3)"/></g><g clip-path="url(#clip-path)"><g clip-path="url(#clip-path-9)"><path d="M1.59,0V12.27H6.06L10,5.45H20V0Z" transform="translate(0)" fill="#db4437"/><path d="M1.59,0V12.27H6.06L10,5.45H20V0Z" transform="translate(0)" fill="url(#linear-gradient)"/></g></g><g clip-path="url(#clip-path)"><path d="M10,5.45V7.84l8.91-2.39Z" transform="translate(0)" fill="url(#radial-gradient)"/></g><g clip-path="url(#clip-path)"><g clip-path="url(#clip-path-12)"><path d="M0,20H9.52l4.42-4.42V12.27H6.06L0,1.87Z" transform="translate(0)" fill="#0f9d58"/><path d="M0,20H9.52l4.42-4.42V12.27H6.06L0,1.87Z" transform="translate(0)" fill="url(#linear-gradient-2)"/></g></g><g clip-path="url(#clip-path)"><path d="M1.59,4.6l6.5,6.5-2,1.17Z" transform="translate(0)" fill="url(#radial-gradient-2)"/></g><g clip-path="url(#clip-path)"><path d="M9.53,20l2.38-8.89,2,1.17Z" transform="translate(0)" fill="url(#radial-gradient-3)"/></g><g clip-path="url(#clip-path)"><circle cx="10" cy="10" r="4.55" fill="#f1f1f1"/><circle cx="10" cy="10" r="3.64" fill="#4285f4"/></g><g clip-path="url(#clip-path)"><path d="M10,5.34A4.55,4.55,0,0,0,5.45,9.89V10A4.55,4.55,0,0,1,10,5.45H20V5.34Z" transform="translate(0)" fill="#3e2723" fill-opacity="0.2"/><path d="M13.93,12.27a4.53,4.53,0,0,1-7.86,0h0L0,1.87V2l6.06,10.4h0a4.54,4.54,0,0,0,7.86,0h0v-.12Z" transform="translate(0)" fill="#fff" fill-opacity="0.1"/><path d="M10.11,5.45h0a4.54,4.54,0,0,1,0,9.08h0a4.55,4.55,0,0,0,0-9.1Z" transform="translate(0)" fill="#3e2723" opacity="0.1" style="isolation:isolate"/><path d="M14,12.42a4.55,4.55,0,0,0,.61-2.26,4.8,4.8,0,0,0-.21-1.38A4.92,4.92,0,0,1,14.55,10a4.58,4.58,0,0,1-.61,2.27h0L9.52,20h.13L14,12.43Z" transform="translate(0)" fill="#fff" fill-opacity="0.2"/></g><g clip-path="url(#clip-path)"><path d="M10,.11a10,10,0,0,1,10,10V10A10,10,0,0,0,0,10v.06a10,10,0,0,1,10-10Z" transform="translate(0)" fill="#fff" fill-opacity="0.2"/><path d="M10,19.89a10,10,0,0,0,10-10V10A10,10,0,0,1,0,10V9.94a10,10,0,0,0,10,10Z" transform="translate(0)" fill="#3e2723" fill-opacity="0.15"/></g><circle cx="10" cy="10" r="10" fill="url(#radial-gradient-4)"/></svg>