<svg id="Firefox_-_Large" data-name="Firefox - Large" xmlns="http://www.w3.org/2000/svg" xmlns:xlink="http://www.w3.org/1999/xlink" width="19.42" height="19.9" viewBox="0 0 19.42 19.9"><defs><radialGradient id="radial-gradient" cx="-15448" cy="-8794.17" r="9.17" gradientTransform="matrix(0.76, 0.03, -0.05, 1.12, 11350.44, 10379.71)" gradientUnits="userSpaceOnUse"><stop offset="0.04" stop-color="#ffea00"/><stop offset="0.12" stop-color="#ffde00"/><stop offset="0.25" stop-color="#ffbf00"/><stop offset="0.43" stop-color="#ff8e00"/><stop offset="0.77" stop-color="#ff272d"/><stop offset="0.87" stop-color="#e0255a"/><stop offset="0.95" stop-color="#cc2477"/><stop offset="1" stop-color="#c42482"/></radialGradient><radialGradient id="radial-gradient-2" cx="-8231.39" cy="-8352.57" r="16.09" gradientTransform="translate(10097.24 10235.83) scale(1.23)" gradientUnits="userSpaceOnUse"><stop offset="0" stop-color="#00ccda"/><stop offset="0.22" stop-color="#0083ff"/><stop offset="0.26" stop-color="#007af9"/><stop offset="0.33" stop-color="#0060e8"/><stop offset="0.33" stop-color="#005fe7"/><stop offset="0.44" stop-color="#2639ad"/><stop offset="0.52" stop-color="#401e84"/><stop offset="0.57" stop-color="#4a1475"/></radialGradient><linearGradient id="linear-gradient" x1="11.29" y1="-209.17" x2="7.4" y2="-221.91" gradientTransform="translate(0 224)" gradientUnits="userSpaceOnUse"><stop offset="0" stop-color="#000f43" stop-opacity="0.4"/><stop offset="0.48" stop-color="#001962" stop-opacity="0.17"/><stop offset="1" stop-color="#002079" stop-opacity="0"/></linearGradient><radialGradient id="radial-gradient-3" cx="-9253.75" cy="-7281.08" r="5.43" gradientTransform="translate(10405.24 10026.77) rotate(5.76) scale(1.23)" gradientUnits="userSpaceOnUse"><stop offset="0" stop-color="#ffea00"/><stop offset="0.5" stop-color="#ff272d"/><stop offset="1" stop-color="#c42482"/></radialGradient><radialGradient id="radial-gradient-4" cx="-9254.24" cy="-7286.29" r="9.06" gradientTransform="translate(10405.24 10026.77) rotate(5.76) scale(1.23)" gradientUnits="userSpaceOnUse"><stop offset="0" stop-color="#ffe900"/><stop offset="0.16" stop-color="#ffaf0e"/><stop offset="0.32" stop-color="#ff7a1b"/><stop offset="0.47" stop-color="#ff4e26"/><stop offset="0.62" stop-color="#ff2c2e"/><stop offset="0.76" stop-color="#ff1434"/><stop offset="0.89" stop-color="#ff0538"/><stop offset="1" stop-color="#ff0039"/></radialGradient><radialGradient id="radial-gradient-5" cx="-9252.96" cy="-7277.88" r="8.32" gradientTransform="translate(10405.24 10026.77) rotate(5.76) scale(1.23)" gradientUnits="userSpaceOnUse"><stop offset="0" stop-color="#ff272d"/><stop offset="0.5" stop-color="#c42482"/><stop offset="0.99" stop-color="#620700"/></radialGradient><radialGradient id="radial-gradient-6" cx="14.85" cy="-215.99" r="15.9" gradientTransform="translate(0 224)" gradientUnits="userSpaceOnUse"><stop offset="0.16" stop-color="#ffea00"/><stop offset="0.23" stop-color="#ffde00"/><stop offset="0.36" stop-color="#ffbf00"/><stop offset="0.54" stop-color="#ff8e00"/><stop offset="0.76" stop-color="#ff272d"/><stop offset="0.8" stop-color="#f92433"/><stop offset="0.84" stop-color="#e91c45"/><stop offset="0.89" stop-color="#cf0e62"/><stop offset="0.94" stop-color="#b5007f"/></radialGradient><radialGradient id="radial-gradient-7" cx="13.65" cy="-223.98" r="18.78" gradientTransform="translate(0 224)" gradientUnits="userSpaceOnUse"><stop offset="0.28" stop-color="#ffea00"/><stop offset="0.4" stop-color="#fd0"/><stop offset="0.63" stop-color="#ffba00"/><stop offset="0.86" stop-color="#ff9100"/><stop offset="0.93" stop-color="#ff6711"/><stop offset="0.99" stop-color="#ff4a1d"/></radialGradient><linearGradient id="linear-gradient-2" x1="-9267.63" y1="-7284.25" x2="-9261.84" y2="-7285.72" gradientTransform="translate(10405.24 10026.77) rotate(5.76) scale(1.23)" gradientUnits="userSpaceOnUse"><stop offset="0" stop-color="#c42482" stop-opacity="0.5"/><stop offset="0.47" stop-color="#ff272d" stop-opacity="0.5"/><stop offset="0.49" stop-color="#ff2c2c" stop-opacity="0.51"/><stop offset="0.68" stop-color="#ff7a1a" stop-opacity="0.72"/><stop offset="0.83" stop-color="#ffb20d" stop-opacity="0.87"/><stop offset="0.94" stop-color="#ffd605" stop-opacity="0.96"/><stop offset="1" stop-color="#ffe302"/></linearGradient><linearGradient id="linear-gradient-3" x1="68.98" y1="-1623.08" x2="67.87" y2="-1625.92" gradientTransform="matrix(1, 0.1, -0.1, 1, -227.69, 1613.34)" gradientUnits="userSpaceOnUse"><stop offset="0" stop-color="#891551" stop-opacity="0.6"/><stop offset="1" stop-color="#c42482" stop-opacity="0"/></linearGradient><linearGradient id="linear-gradient-4" x1="-249.76" y1="-18.51" x2="-247.84" y2="-16.33" gradientTransform="matrix(1, 0.1, -0.1, 1, 251.44, 52.92)" gradientUnits="userSpaceOnUse"><stop offset="0.01" stop-color="#891551" stop-opacity="0.5"/><stop offset="0.48" stop-color="#ff272d" stop-opacity="0.5"/><stop offset="1" stop-color="#ff272d" stop-opacity="0"/></linearGradient><linearGradient id="linear-gradient-5" x1="-246.21" y1="-14.73" x2="-246.21" y2="-16.25" gradientTransform="matrix(1, 0.1, -0.1, 1, 251.44, 52.92)" gradientUnits="userSpaceOnUse"><stop offset="0" stop-color="#c42482"/><stop offset="0.08" stop-color="#c42482" stop-opacity="0.81"/><stop offset="0.21" stop-color="#c42482" stop-opacity="0.56"/><stop offset="0.33" stop-color="#c42482" stop-opacity="0.36"/><stop offset="0.45" stop-color="#c42482" stop-opacity="0.2"/><stop offset="0.56" stop-color="#c42482" stop-opacity="0.09"/><stop offset="0.67" stop-color="#c42482" stop-opacity="0.02"/><stop offset="0.77" stop-color="#c42482" stop-opacity="0"/></linearGradient><linearGradient id="linear-gradient-6" x1="12.94" y1="-223.28" x2="19.15" y2="-209.38" gradientTransform="translate(0 224)" gradientUnits="userSpaceOnUse"><stop offset="0" stop-color="#fff14f"/><stop offset="0.27" stop-color="#ffee4c"/><stop offset="0.45" stop-color="#ffe643"/><stop offset="0.61" stop-color="#ffd834"/><stop offset="0.76" stop-color="#ffc41e"/><stop offset="0.89" stop-color="#ffab02"/><stop offset="0.9" stop-color="#ffa900"/><stop offset="0.95" stop-color="#ffa000"/><stop offset="1" stop-color="#ff9100"/></linearGradient><linearGradient id="linear-gradient-7" x1="14.18" y1="-215.27" x2="11.23" y2="-207.36" gradientTransform="translate(0 224)" gradientUnits="userSpaceOnUse"><stop offset="0" stop-color="#ff8e00"/><stop offset="0.04" stop-color="#ff8e00" stop-opacity="0.86"/><stop offset="0.08" stop-color="#ff8e00" stop-opacity="0.73"/><stop offset="0.13" stop-color="#ff8e00" stop-opacity="0.63"/><stop offset="0.18" stop-color="#ff8e00" stop-opacity="0.56"/><stop offset="0.23" stop-color="#ff8e00" stop-opacity="0.51"/><stop offset="0.28" stop-color="#ff8e00" stop-opacity="0.5"/><stop offset="0.39" stop-color="#ff8e00" stop-opacity="0.48"/><stop offset="0.52" stop-color="#ff8e00" stop-opacity="0.42"/><stop offset="0.68" stop-color="#ff8e00" stop-opacity="0.31"/><stop offset="0.84" stop-color="#ff8e00" stop-opacity="0.17"/><stop offset="1" stop-color="#ff8e00" stop-opacity="0"/></linearGradient></defs><path d="M16,1.9A3.22,3.22,0,0,0,15.8,5c.5,1.3,1.3,1,1.7,2.3a10.79,10.79,0,0,1,.3,4.1s.7,2.2,1.3-.1C20.2,6.9,16,2.9,16,1.9Z" transform="translate(-0.3 -0.1)" fill="url(#radial-gradient)"/><path id="_Path_" data-name=" Path " d="M10,19.8a9.1,9.1,0,1,0-9-9.1A9,9,0,0,0,10,19.8Z" transform="translate(-0.3 -0.1)" fill="url(#radial-gradient-2)"/><path d="M16.8,16.3c-.2.1-.4.3-.6.4a14.8,14.8,0,0,0,.8-1.3,2.65,2.65,0,0,0,.5-.6c.1-.1.1-.2.2-.4a8.56,8.56,0,0,0,1.1-3.9h0v-.1a3.75,3.75,0,0,0-.1-1.1v.1a4.69,4.69,0,0,1-.3,2.4h0a6.5,6.5,0,0,0,0-3.1,17.2,17.2,0,0,0-.7-2.1,7.35,7.35,0,0,0-1.6-2.2c-.5-.6-1-1-1.2-1.3a5.75,5.75,0,0,1-.8-1.2c-.1,0-1.1-1-1.2-1-.4.7-1.8,2.8-1.2,4.8a5.28,5.28,0,0,0,1.8,2.4,3.16,3.16,0,0,1,.7,1.6,6,6,0,0,1-.3,3.2,4.12,4.12,0,0,1-3.1,2.3,3.87,3.87,0,0,1-3.6-1.3,2.92,2.92,0,0,0,2.6-.1c.6-.4,1-.7,1.3-.6s.6-.2.3-.6a1.64,1.64,0,0,0-1.6-.7c-.6.1-1.2.6-2.1.1-.1,0-.1-.1-.2-.1s.2.1.1,0-.5-.3-.5-.4h.1a1.41,1.41,0,0,1-.7-1.4.82.82,0,0,1,.4-.6.31.31,0,0,0,.2.1A.31.31,0,0,0,7,9.4H7c.1,0,.3.2.4.2l.2.2V9.7a1.44,1.44,0,0,0-.2-.3h0a.22.22,0,0,1,.2.2c.4,0,.4-.2.4-.5V8.8c0-.1,0-.1.1,0V8.6h0a11.91,11.91,0,0,1,1.5-.9c.2-.1.3-.3.4-.4-.1-.1,0-.2,0-.5s-.1-.3-1.4-.4a.88.88,0,0,1-.7-.6c0-.1,0-.1-.1-.1s0-.1-.1-.2A4.81,4.81,0,0,1,8.9,3.9H8.8l.3-.1c.1,0-.2-.1-.5-.1s-.3.1-.4.1a.31.31,0,0,1,.2-.1,4.71,4.71,0,0,0-.9.3V3.9c-.1.1-.4.3-.5.5V4.3c-.1.1-.2.2-.2.3h0a3.67,3.67,0,0,0-2-.2c-.1-.1-.2,0-.5-.7h0c-.5.4-1.1.8-1.4,1.1h0c-.1,0-.1.1-.1.8v.2a7.37,7.37,0,0,0-.5.6,11.08,11.08,0,0,0-1,2.7,3.13,3.13,0,0,1,.5-1,11.09,11.09,0,0,0-.6,3.5c.1-.3.2-.7.3-1a9.59,9.59,0,0,0,.7,4.1,8.84,8.84,0,0,0,1,1.9,9.05,9.05,0,0,0,6.7,2.9A9.77,9.77,0,0,0,16.8,16.3Z" transform="translate(-0.3 -0.1)" fill="url(#linear-gradient)"/><path d="M14.8,17.6c3.3-.4,4.8-3.8,2.9-3.9C16,13.7,13.2,17.8,14.8,17.6Z" transform="translate(-0.3 -0.1)" fill="url(#radial-gradient-3)"/><path d="M17.9,13.1c2.3-1.3,1.7-4.2,1.7-4.2a8.9,8.9,0,0,0-1.5,2.6C17.5,13.1,16.5,13.9,17.9,13.1Z" transform="translate(-0.3 -0.1)" fill="url(#radial-gradient-4)"/><path d="M10.7,19.3c3.2,1,5.9-1.5,4.2-2.3C13.4,16.2,9.2,18.8,10.7,19.3Z" transform="translate(-0.3 -0.1)" fill="url(#radial-gradient-5)"/><path d="M18.1,14.3c.1-.1.2-.5.3-.6A3.37,3.37,0,0,0,19,12a9.37,9.37,0,0,0,.1-3.7,8.59,8.59,0,0,0-1.5-3.2c-.7-.7-.2-.5-.8-1s-1.1-1.2-1.4-1.5C13.3.8,13.3.5,13.4.4h0V.2A5.56,5.56,0,0,0,12,3.3a4.35,4.35,0,0,0,1,3.4A4.12,4.12,0,0,0,14,8h0a4.7,4.7,0,0,1,.8,2.6,4.48,4.48,0,0,1-4.5,4.5,3.4,3.4,0,0,1-1-.1,3.74,3.74,0,0,1-2.2-1.2,1.73,1.73,0,0,1-.3-.4,3.6,3.6,0,0,0,2.9-.1c.7-.4,1.1-.7,1.5-.6s.6-.2.4-.6a2,2,0,0,0-1.8-.7c-.7.1-1.4.6-2.3.1-.1,0-.1-.1-.2-.1s.2.1.1,0-.4-.2-.4-.3h.1c-.9-.6-.8-1.1-.7-1.3a.82.82,0,0,1,.4-.6.31.31,0,0,0,.2.1.1.1,0,0,0-.1-.1h0c.1,0,.3.2.5.2s.2.2.2.2V9.5a1.44,1.44,0,0,0-.2-.3h0c.1,0,.2.1.3.2a3.54,3.54,0,0,0,.1-.6V8.5c0-.1,0-.1.1,0V8.4h0a12.9,12.9,0,0,1,1.6-.9A1.76,1.76,0,0,1,9.9,7a4.33,4.33,0,0,0,.1-.5c0-.1,0-.2-.4-.3-.2,0-.6-.1-1.1-.1s-.7-.3-.8-.6c0-.1,0-.1-.1-.1s0-.1-.1-.2A4,4,0,0,1,8.8,3.6H8.7L9,3.5c.1,0-.2-.1-.5-.1a.75.75,0,0,0-.5.1c.1-.1.3-.1.2-.1a2.11,2.11,0,0,0-1,.4V3.7a1.4,1.4,0,0,0-.5.4V4l-.3.3h0a4.32,4.32,0,0,0-2.2-.2,2.6,2.6,0,0,1-.7-.9h0a3.55,3.55,0,0,1-.2-1,1,1,0,0,0-.5.6c0,.1-.1.1-.1.2V2.9c0,.1-.1.1-.2.3s-.1.1-.1.2h0V3.3a1.69,1.69,0,0,1-.2.5A4.87,4.87,0,0,0,2,5.3v.1a1.79,1.79,0,0,0-.5.7A7.82,7.82,0,0,0,.4,8.8a8.79,8.79,0,0,1,.6-1,10.37,10.37,0,0,0-.7,3.4c.1-.3.2-.7.3-1a8.46,8.46,0,0,0,.8,4.1,9.31,9.31,0,0,0,3.7,4.2h0a7.3,7.3,0,0,0,2.2,1c.1,0,.2.1.3.1H7.5a9,9,0,0,0,2.8.4c3.6,0,4.6-1.4,4.6-1.4h0a.1.1,0,0,0,.1-.1c-.5.5-1.8.5-2.3.5a16.79,16.79,0,0,0,2.4-.8c.1,0,.2-.1.4-.2h.1a4.19,4.19,0,0,0,1.4-.9,3.29,3.29,0,0,0,1.4-2.2c0,.1-.1.2-.1.3a3,3,0,0,1-1.5,1.2,14.63,14.63,0,0,0,.9-1.3A5.9,5.9,0,0,0,18.1,14.3Z" transform="translate(-0.3 -0.1)" fill="url(#radial-gradient-6)"/><path d="M16.9,16.3A9.06,9.06,0,0,0,18,14.7c.8-1.6,1.9-4.2,1-6.9a9.41,9.41,0,0,0-3-4.5C14,1.4,13.4.6,13.4.1c0,0-2.4,2.6-1.3,5.4s3.1,2.6,4.5,5.5c1.6,3.4-1.3,7-3.8,8.1.1,0,5.4-1.2,5.7-4.2C18.5,14.8,18.4,15.6,16.9,16.3Z" transform="translate(-0.3 -0.1)" fill="url(#radial-gradient-7)"/><path d="M10,6.5c0-.2-.1-.3-1.6-.4-.5-.1-.8-.7-.9-.9a3.85,3.85,0,0,0-.2,1.9,2.54,2.54,0,0,0,.5,1.3V8.3a5.89,5.89,0,0,1,1.6-.8A1.56,1.56,0,0,0,10,6.5Z" transform="translate(-0.3 -0.1)" fill="url(#linear-gradient-2)"/><path d="M3.5,3.2h0c-.2-.2-.2-.7-.2-1a1,1,0,0,0-.5.6c0,.1-.1.1-.1.2V2.9c0,.1-.1.1-.2.3s-.1.1-.1.2V3.3A4.24,4.24,0,0,0,2,5.4,4.91,4.91,0,0,1,4.2,4c-.1,0-.4-.3-.7-.8Z" transform="translate(-0.3 -0.1)" fill="url(#linear-gradient-3)"/><path d="M7.4,14.6c-1.4-.6-3-1.5-3-3.4a1.87,1.87,0,0,1,2.4-2c-.1,0-.3.2-.4.4a1.14,1.14,0,0,0,.2,1.2c.8.8-1.5,1.9,2,4.1a9,9,0,0,1-1.2-.3Z" transform="translate(-0.3 -0.1)" fill="url(#linear-gradient-4)"/><path d="M6.9,13.4a4.07,4.07,0,0,0,2.9-.1c.5-.3,1.1-.7,1.4-.6a2.92,2.92,0,0,0-.9-.2H9.8c-.2,0-.4.1-.6.1l.2-.1H8.9A6.41,6.41,0,0,1,5,11.4a2.82,2.82,0,0,0,1.9,2Z" transform="translate(-0.3 -0.1)" fill="url(#linear-gradient-5)"/><path d="M16.9,16.3c2.1-2.1,3.2-4.6,2.7-7.4a5.57,5.57,0,0,1-.5,2.9,7.71,7.71,0,0,0-.5-5.1,12.55,12.55,0,0,0-3.8-4.4A4.68,4.68,0,0,1,13.2.5c-.3.7-1.3,3-.1,5s3,2.4,4.2,4.2C19.6,12.8,16.9,16.3,16.9,16.3Z" transform="translate(-0.3 -0.1)" fill="url(#linear-gradient-6)"/><path d="M16.5,10.9A7.32,7.32,0,0,0,14,8c.1.1.1.2.2.3a5.31,5.31,0,0,1,1.1,5.3c-1.5,4.7-7.7,2.5-8.4,1.9.3,2.7,4.8,4,7.8,2.3C16.4,16.1,17.8,13.4,16.5,10.9Z" transform="translate(-0.3 -0.1)" fill="url(#linear-gradient-7)"/></svg>