<svg id="Layer_1" data-name="Layer 1" xmlns="http://www.w3.org/2000/svg" xmlns:xlink="http://www.w3.org/1999/xlink" width="19.9" height="19.9" viewBox="0 0 19.9 19.9"><defs><linearGradient id="linear-gradient" x1="181.91" y1="1651.29" x2="181.91" y2="1651.3" gradientTransform="matrix(2421.88, 0, 0, -2421.88, -440552.25, 3999239.18)" gradientUnits="userSpaceOnUse"><stop offset="0.25" stop-color="#dbdbda"/><stop offset="1" stop-color="#dcdcdc"/></linearGradient><radialGradient id="radial-gradient" cx="181.86" cy="1651.44" r="0.01" gradientTransform="matrix(2240.23, 0, 0, -2240.23, -407402.72, 3699622.9)" gradientUnits="userSpaceOnUse"><stop offset="0" stop-color="#2abce1"/><stop offset="0.11" stop-color="#2abbe1"/><stop offset="1" stop-color="#3375f8"/></radialGradient><linearGradient id="linear-gradient-2" x1="162.48" y1="1651.44" x2="162.48" y2="1651.44" gradientTransform="matrix(2240.23, 0, 0, -2240.23, -363989.41, 3699621.97)" gradientUnits="userSpaceOnUse"><stop offset="0" stop-opacity="0"/><stop offset="1"/></linearGradient></defs><circle cx="9.95" cy="9.95" r="9.95" fill="url(#linear-gradient)"/><circle cx="9.95" cy="9.95" r="9.2" fill="url(#radial-gradient)"/><path d="M10,3.06A.11.11,0,0,1,9.85,3V1.32A.11.11,0,0,1,10,1.21a.11.11,0,0,1,.12.11V3a.12.12,0,0,1-.12.11Z" transform="translate(0 -0.07)" fill="#f3f3f3"/><path d="M10,3.06A.11.11,0,0,1,9.84,3V1.32A.12.12,0,0,1,10,1.2a.13.13,0,0,1,.13.12V3A.12.12,0,0,1,10,3.06Zm0-1.84a.11.11,0,0,0-.1.1V3a.1.1,0,0,0,.1.1.11.11,0,0,0,.11-.1V1.32A.11.11,0,0,0,10,1.22Z" transform="translate(0 -0.07)" fill="#fff"/><path d="M10.74,2.18a.11.11,0,0,1-.11-.11l.06-.73a.11.11,0,0,1,.12-.1.13.13,0,0,1,.11.12l-.05.72a.11.11,0,0,1-.13.1Z" transform="translate(0 -0.07)" fill="#f3f3f3"/><path d="M10.74,2.19a.12.12,0,0,1-.12-.12l.06-.72a.12.12,0,0,1,.13-.11.12.12,0,0,1,.12.12l-.06.72A.11.11,0,0,1,10.74,2.19Zm.07-.94a.11.11,0,0,0-.11.1l0,.72a.12.12,0,0,0,.1.11.11.11,0,0,0,.11-.1l.05-.72a.12.12,0,0,0-.1-.11Z" transform="translate(0 -0.07)" fill="#fff"/><path d="M11.32,3.19a.11.11,0,0,1-.09-.13l.32-1.59a.12.12,0,0,1,.13-.09.14.14,0,0,1,.1.14l-.32,1.59a.12.12,0,0,1-.14.08Z" transform="translate(0 -0.07)" fill="#f3f3f3"/><path d="M11.32,3.2a.13.13,0,0,1-.1-.14l.32-1.59a.13.13,0,0,1,.15-.09.12.12,0,0,1,.1.14l-.32,1.59A.13.13,0,0,1,11.32,3.2Zm.37-1.81a.1.1,0,0,0-.12.08l-.32,1.59a.11.11,0,0,0,.08.13.13.13,0,0,0,.13-.08l.32-1.59A.13.13,0,0,0,11.69,1.39Z" transform="translate(0 -0.07)" fill="#fff"/><path d="M12.26,2.5a.12.12,0,0,1-.09-.14h0l.2-.7a.1.1,0,0,1,.14-.08.11.11,0,0,1,.08.14l-.19.7a.12.12,0,0,1-.14.08Z" transform="translate(0 -0.07)" fill="#f3f3f3"/><path d="M12.26,2.5a.11.11,0,0,1-.09-.14l.2-.7a.11.11,0,0,1,.14-.09.12.12,0,0,1,.09.15l-.19.7a.12.12,0,0,1-.15.08Zm.25-.91a.12.12,0,0,0-.13.07l-.19.7a.1.1,0,0,0,.08.13.12.12,0,0,0,.13-.07l.19-.7a.11.11,0,0,0-.08-.13Z" transform="translate(0 -0.07)" fill="#fff"/><path d="M12.64,3.59a.11.11,0,0,1-.06-.15l.62-1.5a.11.11,0,0,1,.15-.05.11.11,0,0,1,.06.15l-.62,1.5a.12.12,0,0,1-.15,0Z" transform="translate(0 -0.07)" fill="#f3f3f3"/><path d="M12.64,3.6a.12.12,0,0,1-.07-.16l.62-1.5a.12.12,0,0,1,.16-.06.11.11,0,0,1,.07.16l-.62,1.5A.12.12,0,0,1,12.64,3.6Zm.71-1.7a.1.1,0,0,0-.14.05l-.63,1.5a.1.1,0,0,0,.07.13.11.11,0,0,0,.14-.05L13.41,2a.11.11,0,0,0-.06-.13Z" transform="translate(0 -0.07)" fill="#fff"/><path d="M13.69,3.09A.11.11,0,0,1,13.63,3L14,2.3a.11.11,0,0,1,.15,0,.13.13,0,0,1,.06.15l-.33.65a.1.1,0,0,1-.15,0Z" transform="translate(0 -0.07)" fill="#f3f3f3"/><path d="M13.69,3.1a.12.12,0,0,1-.06-.16L14,2.29a.12.12,0,0,1,.16,0,.11.11,0,0,1,.06.16l-.33.65a.12.12,0,0,1-.16.05Zm.42-.85a.1.1,0,0,0-.13,0L13.65,3a.12.12,0,0,0,0,.14.11.11,0,0,0,.14,0l.32-.65A.12.12,0,0,0,14.11,2.25Z" transform="translate(0 -0.07)" fill="#fff"/><path d="M13.84,4.24a.1.1,0,0,1,0-.15l.9-1.35a.12.12,0,0,1,.16,0,.11.11,0,0,1,0,.16L14,4.21A.1.1,0,0,1,13.84,4.24Z" transform="translate(0 -0.07)" fill="#f3f3f3"/><path d="M13.84,4.25a.14.14,0,0,1,0-.17l.91-1.34c0-.06.1-.07.17,0a.14.14,0,0,1,0,.17L14,4.22A.12.12,0,0,1,13.84,4.25Zm1-1.53a.12.12,0,0,0-.15,0l-.9,1.35a.1.1,0,0,0,0,.14.12.12,0,0,0,.15,0l.9-1.34a.11.11,0,0,0,0-.15Z" transform="translate(0 -0.07)" fill="#fff"/><path d="M15,4a.12.12,0,0,1,0-.16l.46-.57a.11.11,0,0,1,.15,0,.1.1,0,0,1,0,.15l-.45.57A.1.1,0,0,1,15,4Z" transform="translate(0 -0.07)" fill="#f3f3f3"/><path d="M15,4a.12.12,0,0,1,0-.17l.45-.56a.11.11,0,0,1,.17,0,.12.12,0,0,1,0,.17L15.14,4A.12.12,0,0,1,15,4Zm.58-.73a.1.1,0,0,0-.15,0L15,3.81A.11.11,0,0,0,15,4a.09.09,0,0,0,.14,0l.46-.57a.1.1,0,0,0,0-.14Z" transform="translate(0 -0.07)" fill="#fff"/><path d="M14.9,5.12a.09.09,0,0,1,0-.15l1.15-1.15a.11.11,0,1,1,.16.16L15.06,5.12A.1.1,0,0,1,14.9,5.12Z" transform="translate(0 -0.07)" fill="#f3f3f3"/><path d="M14.89,5.13a.14.14,0,0,1,0-.17L16,3.82a.12.12,0,0,1,.17.17L15.06,5.13a.11.11,0,0,1-.17,0Zm1.32-1.3a.11.11,0,0,0-.15,0L14.91,5a.11.11,0,0,0,0,.15.14.14,0,0,0,.15,0L16.21,4a.12.12,0,0,0,0-.14Z" transform="translate(0 -0.07)" fill="#fff"/><path d="M16.07,5.06a.11.11,0,0,1,0-.15l.56-.47a.11.11,0,0,1,.15,0,.11.11,0,0,1,0,.16l-.55.47A.11.11,0,0,1,16.07,5.06Z" transform="translate(0 -0.07)" fill="#f3f3f3"/><path d="M16.06,5.07a.11.11,0,0,1,0-.17l.55-.47a.11.11,0,0,1,.17,0,.12.12,0,0,1,0,.17l-.55.46a.12.12,0,0,1-.17,0Zm.71-.62a.12.12,0,0,0-.15,0l-.55.47a.1.1,0,0,0,0,.14.1.1,0,0,0,.14,0l.56-.47A.11.11,0,0,0,16.77,4.45Z" transform="translate(0 -0.07)" fill="#fff"/><path d="M15.75,6.18a.12.12,0,0,1,0-.16l1.35-.9a.12.12,0,0,1,.15,0,.1.1,0,0,1,0,.16l-1.35.9A.12.12,0,0,1,15.75,6.18Z" transform="translate(0 -0.07)" fill="#f3f3f3"/><path d="M15.75,6.18a.12.12,0,0,1,0-.17l1.35-.9a.11.11,0,0,1,.17,0,.13.13,0,0,1,0,.17l-1.35.9a.12.12,0,0,1-.17,0Zm1.54-1a.1.1,0,0,0-.14,0L15.79,6a.11.11,0,0,0,0,.15.1.1,0,0,0,.14,0l1.35-.9a.11.11,0,0,0,0-.15Z" transform="translate(0 -0.07)" fill="#fff"/><path d="M16.91,6.34a.11.11,0,0,1,0-.15l.63-.36a.12.12,0,0,1,.16,0,.11.11,0,0,1,0,.15l-.63.36a.12.12,0,0,1-.16,0Z" transform="translate(0 -0.07)" fill="#f3f3f3"/><path d="M16.91,6.35a.11.11,0,0,1,0-.16l.63-.36a.13.13,0,0,1,.17,0,.12.12,0,0,1,0,.16l-.63.36a.13.13,0,0,1-.16-.05Zm.82-.47a.09.09,0,0,0-.14,0L17,6.2a.11.11,0,0,0,0,.14.1.1,0,0,0,.14,0L17.69,6S17.75,5.94,17.73,5.88Z" transform="translate(0 -0.07)" fill="#fff"/><path d="M16.39,7.38c0-.07,0-.13.06-.15L18,6.61a.1.1,0,0,1,.14.06.11.11,0,0,1-.06.15l-1.5.62A.12.12,0,0,1,16.39,7.38Z" transform="translate(0 -0.07)" fill="#f3f3f3"/><path d="M16.38,7.38a.13.13,0,0,1,.07-.16L18,6.6a.11.11,0,0,1,.15.07.12.12,0,0,1-.06.16l-1.5.62a.12.12,0,0,1-.16-.07Zm1.71-.7A.11.11,0,0,0,18,6.62l-1.5.62a.11.11,0,0,0-.05.14.12.12,0,0,0,.13.06L18,6.82A.11.11,0,0,0,18.09,6.68Z" transform="translate(0 -0.07)" fill="#fff"/><path d="M17.49,7.77a.11.11,0,0,1,.07-.15l.68-.23a.12.12,0,0,1,.07.22l-.68.23a.11.11,0,0,1-.14-.07Z" transform="translate(0 -0.07)" fill="#f3f3f3"/><path d="M17.48,7.77a.12.12,0,0,1,.08-.15l.68-.23a.14.14,0,0,1,.16.08.13.13,0,0,1-.08.16l-.68.22A.12.12,0,0,1,17.48,7.77Zm.9-.29a.1.1,0,0,0-.13-.07l-.68.22a.12.12,0,0,0-.07.14.13.13,0,0,0,.14.07l.68-.23a.1.1,0,0,0,.06-.13Z" transform="translate(0 -0.07)" fill="#fff"/><path d="M16.79,8.69a.1.1,0,0,1,.08-.13l1.6-.31c.06,0,.11,0,.13.09a.11.11,0,0,1-.09.13l-1.59.31a.11.11,0,0,1-.13-.09Z" transform="translate(0 -0.07)" fill="#f3f3f3"/><path d="M16.77,8.69a.13.13,0,0,1,.1-.15l1.59-.31a.13.13,0,0,1,.05.25l-1.6.31c-.06,0-.12,0-.14-.1Zm1.81-.35a.09.09,0,0,0-.11-.08l-1.6.31a.09.09,0,0,0-.07.12c0,.05.06.09.11.09l1.6-.32a.09.09,0,0,0,.07-.12Z" transform="translate(0 -0.07)" fill="#fff"/><path d="M17.78,9.29a.12.12,0,0,1,.1-.13l.71-.08a.12.12,0,0,1,.13.1.11.11,0,0,1-.1.12l-.71.09a.12.12,0,0,1-.13-.1Z" transform="translate(0 -0.07)" fill="#f3f3f3"/><path d="M17.78,9.29a.12.12,0,0,1,.1-.14l.71-.09a.12.12,0,0,1,.13.11.12.12,0,0,1-.1.14l-.71.09a.12.12,0,0,1-.13-.11Zm.94-.11a.12.12,0,0,0-.12-.09l-.71.08a.1.1,0,0,0-.09.12.11.11,0,0,0,.12.09l.71-.08a.12.12,0,0,0,.09-.12Z" transform="translate(0 -0.07)" fill="#fff"/><path d="M16.91,10A.11.11,0,0,1,17,9.93h1.63a.1.1,0,0,1,.1.11c0,.07,0,.12-.1.12H17A.11.11,0,0,1,16.91,10Z" transform="translate(0 -0.07)" fill="#f3f3f3"/><path d="M16.91,10A.11.11,0,0,1,17,9.92h1.63a.11.11,0,0,1,.11.12.12.12,0,0,1-.11.13H17A.12.12,0,0,1,16.91,10Zm1.84,0a.12.12,0,0,0-.1-.11H17a.11.11,0,0,0-.1.11.12.12,0,0,0,.1.11h1.63a.12.12,0,0,0,.1-.11Z" transform="translate(0 -0.07)" fill="#fff"/><path d="M17.78,10.83a.11.11,0,0,1,.11-.11l.73,0a.13.13,0,0,1,.1.13.13.13,0,0,1-.12.11L17.88,11a.12.12,0,0,1-.1-.12Z" transform="translate(0 -0.07)" fill="#f3f3f3"/><path d="M17.77,10.83a.13.13,0,0,1,.12-.12l.72.06a.11.11,0,0,1,.11.13.11.11,0,0,1-.12.11l-.72,0a.13.13,0,0,1-.11-.13Zm.95.07a.1.1,0,0,0-.1-.11l-.72,0a.11.11,0,0,0-.11.1.1.1,0,0,0,.1.11l.72.05A.13.13,0,0,0,18.72,10.9Z" transform="translate(0 -0.07)" fill="#fff"/><path d="M16.77,11.4a.12.12,0,0,1,.14-.1l1.59.32a.1.1,0,0,1,.08.13.12.12,0,0,1-.13.1l-1.59-.32a.12.12,0,0,1-.09-.13Z" transform="translate(0 -0.07)" fill="#f3f3f3"/><path d="M16.77,11.4a.13.13,0,0,1,.14-.11l1.59.32a.13.13,0,0,1,.09.15.12.12,0,0,1-.14.1l-1.59-.32a.12.12,0,0,1-.09-.14Zm1.81.36a.12.12,0,0,0-.08-.12l-1.59-.32a.11.11,0,0,0-.05.21l1.59.32A.13.13,0,0,0,18.58,11.76Z" transform="translate(0 -0.07)" fill="#fff"/><path d="M17.47,12.33a.13.13,0,0,1,.14-.09h0l.7.2a.11.11,0,0,1,.08.14.11.11,0,0,1-.14.08h0l-.7-.19a.12.12,0,0,1-.08-.14Z" transform="translate(0 -0.07)" fill="#f3f3f3"/><path d="M17.46,12.33a.13.13,0,0,1,.15-.09l.7.2a.12.12,0,1,1-.06.23l-.7-.2a.12.12,0,0,1-.09-.14Zm.91.25a.1.1,0,0,0-.07-.13l-.69-.19a.1.1,0,0,0-.13.08.12.12,0,0,0,.07.13l.7.19A.1.1,0,0,0,18.37,12.58Z" transform="translate(0 -0.07)" fill="#fff"/><path d="M16.38,12.7a.11.11,0,0,1,.14-.06l1.5.62a.12.12,0,0,1,.07.15.12.12,0,0,1-.15.06l-1.5-.62a.11.11,0,0,1-.06-.15Z" transform="translate(0 -0.07)" fill="#f3f3f3"/><path d="M16.37,12.69a.12.12,0,0,1,.15-.07l1.5.63a.12.12,0,0,1,.07.16.14.14,0,0,1-.16.07l-1.5-.62A.14.14,0,0,1,16.37,12.69Zm1.7.71a.11.11,0,0,0-.05-.14l-1.5-.62a.12.12,0,0,0-.14.06.1.1,0,0,0,.06.14l1.5.62A.09.09,0,0,0,18.07,13.4Z" transform="translate(0 -0.07)" fill="#fff"/><path d="M16.88,13.75A.11.11,0,0,1,17,13.7l.64.32a.12.12,0,0,1,0,.16.11.11,0,0,1-.15.05l-.64-.32A.12.12,0,0,1,16.88,13.75Z" transform="translate(0 -0.07)" fill="#f3f3f3"/><path d="M16.87,13.74a.13.13,0,0,1,.17-.05l.64.32a.14.14,0,0,1,.06.17.13.13,0,0,1-.17.05l-.64-.32A.13.13,0,0,1,16.87,13.74Zm.84.43a.1.1,0,0,0,0-.14L17,13.7a.11.11,0,0,0-.14.05c0,.06,0,.12.05.14l.64.33a.11.11,0,0,0,.14-.05Z" transform="translate(0 -0.07)" fill="#fff"/><path d="M15.74,13.9a.1.1,0,0,1,.15,0l1.36.9a.11.11,0,0,1,0,.15.11.11,0,0,1-.16,0l-1.35-.9A.1.1,0,0,1,15.74,13.9Z" transform="translate(0 -0.07)" fill="#f3f3f3"/><path d="M15.73,13.89a.14.14,0,0,1,.17,0l1.36.9a.14.14,0,0,1,0,.17.13.13,0,0,1-.17,0l-1.36-.9A.12.12,0,0,1,15.73,13.89Zm1.53,1a.11.11,0,0,0,0-.15l-1.35-.9a.1.1,0,0,0-.14,0,.11.11,0,0,0,0,.15l1.35.9a.11.11,0,0,0,.14,0Z" transform="translate(0 -0.07)" fill="#fff"/><path d="M16,15a.1.1,0,0,1,.15,0l.57.44a.12.12,0,0,1,0,.16.11.11,0,0,1-.16,0L16,15.18A.11.11,0,0,1,16,15Z" transform="translate(0 -0.07)" fill="#f3f3f3"/><path d="M16,15a.13.13,0,0,1,.17,0l.57.45a.12.12,0,0,1,0,.17.12.12,0,0,1-.17,0L16,15.19A.12.12,0,0,1,16,15Zm.75.58a.11.11,0,0,0,0-.15L16.18,15A.12.12,0,0,0,16,15a.11.11,0,0,0,0,.15l.57.44a.11.11,0,0,0,.15,0Z" transform="translate(0 -0.07)" fill="#fff"/><path d="M14.87,15A.09.09,0,0,1,15,15l1.15,1.14a.11.11,0,0,1,0,.16.11.11,0,0,1-.15,0L14.87,15.1a.11.11,0,0,1,0-.15Z" transform="translate(0 -0.07)" fill="#f3f3f3"/><path d="M14.87,14.94a.12.12,0,0,1,.17,0l1.15,1.14a.12.12,0,0,1-.17.17l-1.15-1.14a.1.1,0,0,1,0-.17Zm1.3,1.3a.11.11,0,0,0,0-.15L15,15a.1.1,0,1,0-.14.14L16,16.24a.1.1,0,0,0,.14,0Z" transform="translate(0 -0.07)" fill="#fff"/><path d="M14.94,16.11a.11.11,0,0,1,.15,0l.48.55a.1.1,0,0,1,0,.15.1.1,0,0,1-.15,0l-.48-.54A.1.1,0,0,1,14.94,16.11Z" transform="translate(0 -0.07)" fill="#f3f3f3"/><path d="M14.93,16.11a.12.12,0,0,1,.17,0l.48.55a.13.13,0,0,1,0,.17.12.12,0,0,1-.17,0l-.47-.54c0-.06,0-.14,0-.17Zm.62.7a.1.1,0,0,0,0-.14l-.48-.55a.1.1,0,0,0-.14,0,.11.11,0,0,0,0,.15l.47.55a.11.11,0,0,0,.15,0Z" transform="translate(0 -0.07)" fill="#fff"/><path d="M13.82,15.81a.1.1,0,0,1,.15,0l.91,1.35a.11.11,0,0,1,0,.15.1.1,0,0,1-.15,0L13.79,16a.12.12,0,0,1,0-.16Z" transform="translate(0 -0.07)" fill="#f3f3f3"/><path d="M13.82,15.8a.13.13,0,0,1,.17,0l.9,1.35a.12.12,0,0,1,0,.17.13.13,0,0,1-.17,0L13.78,16a.12.12,0,0,1,0-.17Zm1,1.53a.11.11,0,0,0,0-.14L14,15.85a.1.1,0,0,0-.15,0,.09.09,0,0,0,0,.14l.9,1.34a.11.11,0,0,0,.15,0Z" transform="translate(0 -0.07)" fill="#fff"/><path d="M13.66,17a.11.11,0,0,1,.15,0l.36.63a.11.11,0,0,1-.05.15.1.1,0,0,1-.15,0l-.36-.63a.13.13,0,0,1,.05-.16Z" transform="translate(0 -0.07)" fill="#f3f3f3"/><path d="M13.66,17a.12.12,0,0,1,.16,0l.36.63a.12.12,0,0,1,0,.16.11.11,0,0,1-.16,0l-.36-.63a.12.12,0,0,1,.05-.17Zm.46.83a.1.1,0,0,0,0-.14L13.8,17a.11.11,0,0,0-.14,0,.1.1,0,0,0,0,.14l.35.63s.1.07.14,0Z" transform="translate(0 -0.07)" fill="#fff"/><path d="M12.62,16.45a.11.11,0,0,1,.15.05L13.4,18a.12.12,0,0,1-.06.15.12.12,0,0,1-.15,0l-.63-1.5a.12.12,0,0,1,.06-.15Z" transform="translate(0 -0.07)" fill="#f3f3f3"/><path d="M12.62,16.44a.14.14,0,0,1,.17.06l.63,1.5a.13.13,0,0,1-.07.16.14.14,0,0,1-.17-.06l-.63-1.5a.14.14,0,0,1,.07-.16Zm.71,1.7a.09.09,0,0,0,.05-.13l-.63-1.5a.1.1,0,0,0-.19.08l.63,1.5A.11.11,0,0,0,13.33,18.14Z" transform="translate(0 -0.07)" fill="#fff"/><path d="M12.24,17.55a.12.12,0,0,1,.15.07l.22.69a.1.1,0,0,1-.07.14.11.11,0,0,1-.14-.07l-.23-.69a.11.11,0,0,1,.07-.14Z" transform="translate(0 -0.07)" fill="#f3f3f3"/><path d="M12.23,17.54a.13.13,0,0,1,.16.07l.22.69a.11.11,0,0,1-.07.15.12.12,0,0,1-.16-.07l-.22-.68a.14.14,0,0,1,.07-.16Zm.31.9a.13.13,0,0,0,.07-.14l-.23-.68a.1.1,0,0,0-.13-.06.11.11,0,0,0-.07.13l.23.68a.09.09,0,0,0,.12.07Z" transform="translate(0 -0.07)" fill="#fff"/><path d="M11.32,16.84a.12.12,0,0,1,.14.09l.32,1.59a.1.1,0,0,1-.09.13.1.1,0,0,1-.13-.08L11.23,17a.13.13,0,0,1,.09-.14Z" transform="translate(0 -0.07)" fill="#f3f3f3"/><path d="M11.32,16.84a.12.12,0,0,1,.15.09l.33,1.59a.12.12,0,0,1-.09.14.12.12,0,0,1-.15-.09L11.23,17a.12.12,0,0,1,.09-.14Zm.37,1.81a.12.12,0,0,0,.09-.13l-.33-1.59a.11.11,0,0,0-.13-.08.11.11,0,0,0-.08.13l.33,1.59a.12.12,0,0,0,.12.08Z" transform="translate(0 -0.07)" fill="#fff"/><path d="M10.73,17.85a.14.14,0,0,1,.14.1l.09.71a.11.11,0,0,1-.1.13.12.12,0,0,1-.13-.1l-.1-.71A.12.12,0,0,1,10.73,17.85Z" transform="translate(0 -0.07)" fill="#f3f3f3"/><path d="M10.73,17.85a.12.12,0,0,1,.14.1l.1.71a.12.12,0,0,1-.11.13.12.12,0,0,1-.14-.1L10.63,18A.11.11,0,0,1,10.73,17.85Zm.12.93a.1.1,0,0,0,.09-.12L10.85,18a.1.1,0,0,0-.12-.09.11.11,0,0,0-.09.12l.09.71A.11.11,0,0,0,10.85,18.78Z" transform="translate(0 -0.07)" fill="#fff"/><path d="M9.93,17a.11.11,0,0,1,.12.11v1.63a.11.11,0,0,1-.12.11.11.11,0,0,1-.11-.11V17.09A.11.11,0,0,1,9.93,17Z" transform="translate(0 -0.07)" fill="#f3f3f3"/><path d="M9.93,17a.12.12,0,0,1,.13.11v1.63a.12.12,0,0,1-.13.11.11.11,0,0,1-.12-.11V17.09A.12.12,0,0,1,9.93,17Zm0,1.84a.11.11,0,0,0,.11-.1V17.09a.11.11,0,0,0-.11-.1.12.12,0,0,0-.11.1v1.63A.13.13,0,0,0,9.93,18.82Z" transform="translate(0 -0.07)" fill="#fff"/><path d="M9.16,17.85a.12.12,0,0,1,.1.12l0,.72a.12.12,0,1,1-.23,0L9,18A.12.12,0,0,1,9.16,17.85Z" transform="translate(0 -0.07)" fill="#f3f3f3"/><path d="M9.16,17.85a.11.11,0,0,1,.11.12l0,.72a.12.12,0,0,1-.13.11A.13.13,0,0,1,9,18.68L9,18A.12.12,0,0,1,9.16,17.85Zm-.07.94a.11.11,0,0,0,.11-.1L9.25,18a.12.12,0,0,0-.1-.11A.1.1,0,0,0,9,18l0,.72c0,.05,0,.1.1.11Z" transform="translate(0 -0.07)" fill="#fff"/><path d="M8.57,16.84a.13.13,0,0,1,.1.14l-.32,1.59a.1.1,0,0,1-.13.08.11.11,0,0,1-.1-.13l.32-1.59A.13.13,0,0,1,8.57,16.84Z" transform="translate(0 -0.07)" fill="#f3f3f3"/><path d="M8.57,16.84a.12.12,0,0,1,.1.14l-.31,1.59a.13.13,0,0,1-.15.09.12.12,0,0,1-.1-.14l.32-1.59a.12.12,0,0,1,.14-.09Zm-.36,1.81a.12.12,0,0,0,.12-.08L8.65,17a.11.11,0,0,0-.08-.13.12.12,0,0,0-.13.08l-.32,1.59A.11.11,0,0,0,8.21,18.65Z" transform="translate(0 -0.07)" fill="#fff"/><path d="M7.64,17.54a.13.13,0,0,1,.09.14l-.2.7a.11.11,0,1,1-.22-.06h0l.19-.7a.12.12,0,0,1,.14-.08Z" transform="translate(0 -0.07)" fill="#f3f3f3"/><path d="M7.64,17.54a.12.12,0,0,1,.09.14l-.2.7a.12.12,0,0,1-.15.09.12.12,0,0,1-.08-.15l.19-.7a.12.12,0,0,1,.15-.08Zm-.26.91a.13.13,0,0,0,.14-.07l.19-.7a.1.1,0,0,0-.08-.13.12.12,0,0,0-.13.07l-.2.7A.13.13,0,0,0,7.38,18.45Z" transform="translate(0 -0.07)" fill="#fff"/><path d="M7.26,16.45a.11.11,0,0,1,.06.15L6.7,18.1a.11.11,0,0,1-.15,0A.13.13,0,0,1,6.49,18l.62-1.5a.11.11,0,0,1,.15-.05Z" transform="translate(0 -0.07)" fill="#f3f3f3"/><path d="M7.26,16.44a.13.13,0,0,1,.07.16l-.62,1.5a.14.14,0,0,1-.17.06A.13.13,0,0,1,6.47,18l.63-1.5A.12.12,0,0,1,7.26,16.44Zm-.71,1.7a.1.1,0,0,0,.14-.05l.62-1.5a.09.09,0,0,0-.06-.13.1.1,0,0,0-.14.05L6.49,18A.1.1,0,0,0,6.55,18.14Z" transform="translate(0 -0.07)" fill="#fff"/><path d="M6.21,17a.11.11,0,0,1,0,.14l-.32.65a.11.11,0,0,1-.16,0,.11.11,0,0,1,0-.14L6.06,17A.1.1,0,0,1,6.21,17Z" transform="translate(0 -0.07)" fill="#f3f3f3"/><path d="M6.21,16.94a.11.11,0,0,1,0,.16l-.32.65a.13.13,0,0,1-.17.05.12.12,0,0,1,0-.16L6.05,17A.12.12,0,0,1,6.21,16.94Zm-.43.84a.1.1,0,0,0,.14,0l.33-.65a.12.12,0,0,0,0-.14.11.11,0,0,0-.14.05l-.32.65s0,.1,0,.13Z" transform="translate(0 -0.07)" fill="#fff"/><path d="M6.05,15.79a.12.12,0,0,1,0,.16L5.18,17.3a.11.11,0,0,1-.15,0,.11.11,0,0,1,0-.16l.9-1.34a.1.1,0,0,1,.15,0Z" transform="translate(0 -0.07)" fill="#f3f3f3"/><path d="M6.05,15.79a.13.13,0,0,1,0,.17l-.9,1.34a.12.12,0,0,1-.17,0,.14.14,0,0,1,0-.17l.9-1.34a.12.12,0,0,1,.17,0ZM5,17.32a.12.12,0,0,0,.15,0L6.08,16a.11.11,0,0,0,0-.14.12.12,0,0,0-.15,0L5,17.17a.11.11,0,0,0,0,.15Z" transform="translate(0 -0.07)" fill="#fff"/><path d="M4.92,16.08a.11.11,0,0,1,0,.16l-.45.57a.11.11,0,0,1-.15,0,.1.1,0,0,1,0-.15l.45-.57A.11.11,0,0,1,4.92,16.08Z" transform="translate(0 -0.07)" fill="#f3f3f3"/><path d="M4.93,16.07a.14.14,0,0,1,0,.18l-.45.56a.11.11,0,0,1-.17,0,.12.12,0,0,1,0-.17l.45-.57A.12.12,0,0,1,4.93,16.07Zm-.59.74a.11.11,0,0,0,.15,0l.45-.57a.11.11,0,0,0,0-.15.1.1,0,0,0-.15,0l-.45.57a.11.11,0,0,0,0,.14Z" transform="translate(0 -0.07)" fill="#fff"/><path d="M5,14.92a.11.11,0,0,1,0,.15L3.85,16.21a.11.11,0,0,1-.16,0,.11.11,0,0,1,0-.15l1.15-1.14A.1.1,0,0,1,5,14.92Z" transform="translate(0 -0.07)" fill="#f3f3f3"/><path d="M5,14.91a.14.14,0,0,1,0,.17L3.85,16.22a.11.11,0,0,1-.17,0,.14.14,0,0,1,0-.17l1.15-1.14A.13.13,0,0,1,5,14.91Zm-1.32,1.3a.11.11,0,0,0,.15,0L5,15.07a.11.11,0,0,0-.15-.15L3.69,16.07a.1.1,0,0,0,0,.14Z" transform="translate(0 -0.07)" fill="#fff"/><path d="M3.83,15a.1.1,0,0,1,0,.15l-.55.47a.1.1,0,0,1-.15,0,.11.11,0,0,1,0-.15L3.68,15A.1.1,0,0,1,3.83,15Z" transform="translate(0 -0.07)" fill="#f3f3f3"/><path d="M3.84,15a.11.11,0,0,1,0,.17l-.55.47a.11.11,0,0,1-.17,0,.12.12,0,0,1,0-.17L3.67,15a.12.12,0,0,1,.17,0Zm-.72.61a.11.11,0,0,0,.15,0l.55-.47a.1.1,0,0,0,0-.14.11.11,0,0,0-.15,0l-.55.47a.11.11,0,0,0,0,.14Z" transform="translate(0 -0.07)" fill="#fff"/><path d="M4.14,13.86a.1.1,0,0,1,0,.15l-1.35.91a.12.12,0,0,1-.16,0,.1.1,0,0,1,0-.15L4,13.83a.11.11,0,0,1,.15,0Z" transform="translate(0 -0.07)" fill="#f3f3f3"/><path d="M4.15,13.86a.13.13,0,0,1,0,.17l-1.35.9a.13.13,0,0,1-.14-.21L4,13.82a.12.12,0,0,1,.17,0Zm-1.54,1a.11.11,0,0,0,.14,0L4.1,14a.1.1,0,0,0,0-.15.1.1,0,0,0-.14,0l-1.36.9a.12.12,0,0,0,0,.15Z" transform="translate(0 -0.07)" fill="#fff"/><path d="M3,13.7a.1.1,0,0,1,0,.15l-.63.36a.12.12,0,0,1-.16-.05.11.11,0,0,1,0-.15l.63-.36a.11.11,0,0,1,.15,0Z" transform="translate(0 -0.07)" fill="#f3f3f3"/><path d="M3,13.69a.11.11,0,0,1,0,.16l-.63.36a.12.12,0,0,1-.16-.05.12.12,0,0,1,0-.16l.63-.36a.12.12,0,0,1,.16,0Zm-.82.47a.1.1,0,0,0,.14,0l.63-.35a.13.13,0,0,0,0-.14.1.1,0,0,0-.14,0L2.21,14s-.06.08,0,.14Z" transform="translate(0 -0.07)" fill="#fff"/><path d="M3.5,12.66a.11.11,0,0,1-.06.15l-1.5.62c-.05,0-.12,0-.15-.06a.11.11,0,0,1,.07-.15l1.5-.62a.11.11,0,0,1,.14.06Z" transform="translate(0 -0.07)" fill="#f3f3f3"/><path d="M3.51,12.65a.13.13,0,0,1-.06.17L2,13.44a.12.12,0,0,1-.15-.07.12.12,0,0,1,.06-.16l1.5-.63a.12.12,0,0,1,.15.07Zm-1.7.71a.1.1,0,0,0,.13.06l1.5-.62a.1.1,0,0,0,.06-.14.11.11,0,0,0-.13-.06l-1.51.62a.11.11,0,0,0-.05.14Z" transform="translate(0 -0.07)" fill="#fff"/><path d="M2.41,12.27a.11.11,0,0,1-.07.15l-.68.23a.11.11,0,0,1-.14-.07.1.1,0,0,1,.07-.15l.68-.23A.11.11,0,0,1,2.41,12.27Z" transform="translate(0 -0.07)" fill="#f3f3f3"/><path d="M2.42,12.27a.12.12,0,0,1-.08.15l-.69.23a.12.12,0,0,1-.15-.08.13.13,0,0,1,.08-.16l.68-.22a.13.13,0,0,1,.16.08Zm-.9.29a.09.09,0,0,0,.13.07l.68-.22a.1.1,0,0,0,.06-.14.11.11,0,0,0-.13-.07l-.68.23A.1.1,0,0,0,1.52,12.56Z" transform="translate(0 -0.07)" fill="#fff"/><path d="M3.11,11.35a.11.11,0,0,1-.09.13l-1.59.31a.11.11,0,0,1-.13-.09.1.1,0,0,1,.08-.13L3,11.25a.13.13,0,0,1,.13.1Z" transform="translate(0 -0.07)" fill="#f3f3f3"/><path d="M3.12,11.35A.13.13,0,0,1,3,11.5l-1.59.31a.12.12,0,0,1-.14-.1.12.12,0,0,1,.09-.15L3,11.25A.11.11,0,0,1,3.12,11.35Zm-1.81.35a.11.11,0,0,0,.12.08L3,11.47a.09.09,0,0,0,.08-.12A.12.12,0,0,0,3,11.26l-1.59.31a.12.12,0,0,0-.08.13Z" transform="translate(0 -0.07)" fill="#fff"/><path d="M2.11,10.75a.1.1,0,0,1-.09.12L1.31,11a.11.11,0,0,1-.13-.1.11.11,0,0,1,.09-.13L2,10.65A.11.11,0,0,1,2.11,10.75Z" transform="translate(0 -0.07)" fill="#f3f3f3"/><path d="M2.12,10.75a.12.12,0,0,1-.1.14L1.31,11a.13.13,0,0,1-.14-.11.13.13,0,0,1,.11-.14L2,10.64a.12.12,0,0,1,.13.11Zm-.94.11A.11.11,0,0,0,1.3,11L2,10.87a.11.11,0,0,0,.09-.12A.11.11,0,0,0,2,10.66l-.71.08A.1.1,0,0,0,1.18,10.86Z" transform="translate(0 -0.07)" fill="#fff"/><path d="M3,10a.1.1,0,0,1-.1.11H1.25A.11.11,0,0,1,1.14,10a.11.11,0,0,1,.11-.12H2.88c.06,0,.1,0,.1.12Z" transform="translate(0 -0.07)" fill="#f3f3f3"/><path d="M3,10a.11.11,0,0,1-.11.12H1.25A.12.12,0,0,1,1.13,10a.13.13,0,0,1,.12-.13H2.88A.12.12,0,0,1,3,10ZM1.15,10a.12.12,0,0,0,.1.11H2.88a.11.11,0,0,0,0-.22H1.25a.12.12,0,0,0-.1.11Z" transform="translate(0 -0.07)" fill="#fff"/><path d="M2.12,9.21A.12.12,0,0,1,2,9.32l-.73-.05a.12.12,0,0,1-.1-.13A.13.13,0,0,1,1.3,9L2,9.09A.11.11,0,0,1,2.12,9.21Z" transform="translate(0 -0.07)" fill="#e2e2e2"/><path d="M2.13,9.21A.13.13,0,0,1,2,9.33l-.73-.06a.12.12,0,0,1-.11-.13A.14.14,0,0,1,1.3,9L2,9.08a.14.14,0,0,1,.11.13Zm-.95-.07a.1.1,0,0,0,.1.11L2,9.3a.11.11,0,0,0,.11-.1A.11.11,0,0,0,2,9.09L1.29,9a.13.13,0,0,0-.11.1Z" transform="translate(0 -0.07)" fill="#fff"/><path d="M3.12,8.64a.12.12,0,0,1-.13.1L1.4,8.41a.11.11,0,0,1-.09-.13.12.12,0,0,1,.14-.09L3,8.5a.13.13,0,0,1,.08.14Z" transform="translate(0 -0.07)" fill="#f3f3f3"/><path d="M3.13,8.64a.12.12,0,0,1-.14.1L1.4,8.43a.13.13,0,0,1-.09-.15.12.12,0,0,1,.14-.1L3,8.5a.12.12,0,0,1,.09.14ZM1.32,8.28a.1.1,0,0,0,.08.12L3,8.72a.11.11,0,0,0,.13-.08A.13.13,0,0,0,3,8.51L1.45,8.19a.12.12,0,0,0-.13.09Z" transform="translate(0 -0.07)" fill="#fff"/><path d="M2.43,7.71a.13.13,0,0,1-.14.09h0l-.7-.2a.1.1,0,0,1-.08-.14.11.11,0,0,1,.14-.08h0l.7.19a.12.12,0,0,1,.08.14Z" transform="translate(0 -0.07)" fill="#f3f3f3"/><path d="M2.43,7.71a.12.12,0,0,1-.15.09l-.69-.2a.11.11,0,0,1-.09-.15.12.12,0,0,1,.15-.08l.7.19a.12.12,0,0,1,.08.15Zm-.91-.26a.13.13,0,0,0,.07.14l.7.19a.1.1,0,0,0,.13-.08.12.12,0,0,0-.07-.13l-.7-.19a.11.11,0,0,0-.13.07Z" transform="translate(0 -0.07)" fill="#fff"/><path d="M3.52,7.34a.11.11,0,0,1-.15.06l-1.5-.62a.12.12,0,0,1-.06-.15A.11.11,0,0,1,2,6.57l1.5.62a.11.11,0,0,1,.06.15Z" transform="translate(0 -0.07)" fill="#f3f3f3"/><path d="M3.53,7.35a.13.13,0,0,1-.16.07l-1.5-.63a.12.12,0,0,1-.06-.16A.13.13,0,0,1,2,6.56l1.5.62A.14.14,0,0,1,3.53,7.35Zm-1.7-.71a.11.11,0,0,0,0,.14l1.5.62a.11.11,0,0,0,.08-.2L2,6.58c-.06,0-.12,0-.13.06Z" transform="translate(0 -0.07)" fill="#fff"/><path d="M3,6.29a.12.12,0,0,1-.15,0L2.22,6a.12.12,0,0,1,0-.16.11.11,0,0,1,.14-.05L3,6.13a.13.13,0,0,1,0,.16Z" transform="translate(0 -0.07)" fill="#f3f3f3"/><path d="M3,6.3a.12.12,0,0,1-.16,0L2.21,6a.12.12,0,0,1,.11-.21L3,6.13A.13.13,0,0,1,3,6.3Zm-.84-.43a.11.11,0,0,0,0,.14l.65.33a.12.12,0,0,0,.14,0,.11.11,0,0,0,0-.14l-.65-.33a.11.11,0,0,0-.14,0Z" transform="translate(0 -0.07)" fill="#fff"/><path d="M4.16,6.14a.11.11,0,0,1-.16,0L2.66,5.28c-.06,0-.06-.1,0-.16a.1.1,0,0,1,.15,0L4.13,6a.1.1,0,0,1,0,.15Z" transform="translate(0 -0.07)" fill="#f3f3f3"/><path d="M4.17,6.15a.14.14,0,0,1-.17,0l-1.35-.9a.14.14,0,0,1,0-.18.14.14,0,0,1,.17,0L4.14,6a.13.13,0,0,1,0,.17Zm-1.54-1a.11.11,0,0,0,0,.15L4,6.17a.1.1,0,0,0,.14,0,.12.12,0,0,0,0-.15l-1.36-.9a.11.11,0,0,0-.14,0Z" transform="translate(0 -0.07)" fill="#fff"/><path d="M3.87,5a.1.1,0,0,1-.15,0l-.57-.45a.1.1,0,0,1,0-.15.11.11,0,0,1,.16,0l.56.44A.1.1,0,0,1,3.87,5Z" transform="translate(0 -0.07)" fill="#f3f3f3"/><path d="M3.88,5a.12.12,0,0,1-.17,0L3.14,4.6a.12.12,0,0,1,0-.17.12.12,0,0,1,.17,0l.57.44a.12.12,0,0,1,0,.17Zm-.75-.58a.1.1,0,0,0,0,.15L3.72,5a.11.11,0,0,0,.13-.17l-.57-.44a.1.1,0,0,0-.15,0Z" transform="translate(0 -0.07)" fill="#fff"/><path d="M5,5.09a.1.1,0,0,1-.16,0L3.72,4a.11.11,0,0,1,0-.16.11.11,0,0,1,.15,0L5,4.94a.1.1,0,0,1,0,.15Z" transform="translate(0 -0.07)" fill="#f3f3f3"/><path d="M5,5.1a.12.12,0,0,1-.17,0L3.71,4a.12.12,0,0,1,.17-.17L5,4.93A.12.12,0,0,1,5,5.1ZM3.72,3.8a.11.11,0,0,0,0,.15L4.87,5.09A.11.11,0,1,0,5,4.94L3.87,3.79a.1.1,0,0,0-.15,0Z" transform="translate(0 -0.07)" fill="#fff"/><path d="M5,3.93a.12.12,0,0,1-.16,0l-.47-.55a.1.1,0,0,1,0-.15.11.11,0,0,1,.15,0L5,3.78a.1.1,0,0,1,0,.15Z" transform="translate(0 -0.07)" fill="#f3f3f3"/><path d="M5,3.93a.12.12,0,0,1-.17,0l-.48-.55a.11.11,0,0,1,0-.17.12.12,0,0,1,.17,0L5,3.76A.12.12,0,0,1,5,3.93Zm-.63-.7a.11.11,0,0,0,0,.14l.47.55a.12.12,0,0,0,.15,0,.11.11,0,0,0,0-.15l-.48-.55a.11.11,0,0,0-.15,0Z" transform="translate(0 -0.07)" fill="#fff"/><path d="M6.08,4.23a.11.11,0,0,1-.16,0L5,2.85A.12.12,0,0,1,5,2.7a.1.1,0,0,1,.16,0l.9,1.34a.12.12,0,0,1,0,.16Z" transform="translate(0 -0.07)" fill="#f3f3f3"/><path d="M6.08,4.24a.13.13,0,0,1-.17,0L5,2.86a.12.12,0,0,1,0-.17.12.12,0,0,1,.17,0l.91,1.35A.12.12,0,0,1,6.08,4.24Zm-1-1.53a.1.1,0,0,0,0,.13l.9,1.35a.11.11,0,0,0,.15,0,.1.1,0,0,0,0-.14L5.2,2.74a.1.1,0,0,0-.15,0Z" transform="translate(0 -0.07)" fill="#fff"/><path d="M6.24,3.08a.11.11,0,0,1-.15,0l-.36-.63a.12.12,0,0,1,0-.16.11.11,0,0,1,.15,0l.36.63a.13.13,0,0,1,0,.16Z" transform="translate(0 -0.07)" fill="#f3f3f3"/><path d="M6.24,3.09a.12.12,0,0,1-.16,0l-.36-.63a.13.13,0,0,1,0-.17.12.12,0,0,1,.16,0l.36.63a.13.13,0,0,1,0,.17Zm-.47-.83a.11.11,0,0,0,0,.14L6.09,3a.11.11,0,0,0,.14,0,.1.1,0,0,0,0-.14L5.91,2.3a.1.1,0,0,0-.14,0Z" transform="translate(0 -0.07)" fill="#fff"/><path d="M7.28,3.59c-.07,0-.13,0-.15,0L6.5,2a.11.11,0,0,1,.06-.15.12.12,0,0,1,.15.05l.63,1.5a.12.12,0,0,1-.06.15Z" transform="translate(0 -0.07)" fill="#f3f3f3"/><path d="M7.28,3.6a.14.14,0,0,1-.17-.06L6.48,2a.13.13,0,0,1,.07-.16.15.15,0,0,1,.17.06l.63,1.5a.14.14,0,0,1-.07.16ZM6.57,1.9A.1.1,0,0,0,6.51,2l.63,1.5a.11.11,0,0,0,.14.05.1.1,0,0,0,.06-.13L6.71,2a.11.11,0,0,0-.14-.05Z" transform="translate(0 -0.07)" fill="#fff"/><path d="M7.66,2.49a.11.11,0,0,1-.15-.07l-.23-.69a.12.12,0,0,1,.07-.14.13.13,0,0,1,.15.07l.23.69a.12.12,0,0,1-.07.14Z" transform="translate(0 -0.07)" fill="#f3f3f3"/><path d="M7.66,2.5a.12.12,0,0,1-.15-.07l-.23-.69a.12.12,0,0,1,.08-.15.12.12,0,0,1,.16.07l.22.68A.13.13,0,0,1,7.66,2.5Zm-.3-.9a.12.12,0,0,0-.07.13l.23.69a.1.1,0,0,0,.13.06.11.11,0,0,0,.07-.13l-.23-.69a.09.09,0,0,0-.12-.06Z" transform="translate(0 -0.07)" fill="#fff"/><path d="M8.57,3.19a.1.1,0,0,1-.13-.08L8.11,1.52a.13.13,0,0,1,.1-.14.11.11,0,0,1,.13.09l.33,1.59A.13.13,0,0,1,8.57,3.19Z" transform="translate(0 -0.07)" fill="#f3f3f3"/><path d="M8.57,3.2a.11.11,0,0,1-.14-.09L8.1,1.52a.11.11,0,0,1,.09-.14.12.12,0,0,1,.15.09l.33,1.59a.12.12,0,0,1-.1.14ZM8.21,1.39a.11.11,0,0,0-.09.13l.33,1.59a.11.11,0,0,0,.12.08.11.11,0,0,0,.09-.13L8.33,1.47a.11.11,0,0,0-.12-.08Z" transform="translate(0 -0.07)" fill="#fff"/><path d="M9.16,2.18A.12.12,0,0,1,9,2.09l-.09-.71A.11.11,0,0,1,9,1.25a.12.12,0,0,1,.13.1l.1.71a.11.11,0,0,1-.11.12Z" transform="translate(0 -0.07)" fill="#f3f3f3"/><path d="M9.16,2.19A.12.12,0,0,1,9,2.09l-.09-.71A.12.12,0,0,1,9,1.24a.13.13,0,0,1,.14.11l.09.71A.12.12,0,0,1,9.16,2.19Zm-.11-.93a.12.12,0,0,0-.1.12l.1.71a.1.1,0,0,0,.11.09.12.12,0,0,0,.1-.12l-.1-.71a.09.09,0,0,0-.11-.09Z" transform="translate(0 -0.07)" fill="#fff"/><circle cx="10" cy="9.94" r="9.2" fill-opacity="0.2" fill="url(#linear-gradient-2)"/><polygon points="16.38 4.1 8.95 8.86 8.95 8.86 8.95 8.87 8.94 8.88 4.31 16.52 11.12 11.04 11.12 11.03 11.12 11.02 16.38 4.1 16.38 4.1" opacity="0.05" style="isolation:isolate"/><path d="M16.24,3.73,8.9,9l2.18,2.16,5.16-7.38" transform="translate(0 -0.07)" fill="#cd151e"/><path d="M8.91,8.93,10,10l6.24-6.28L8.91,8.93Z" transform="translate(0 -0.07)" fill="#fa5153"/><path d="M8.91,8.93l2.17,2.16L3.75,16.31,8.91,8.93Z" transform="translate(0 -0.07)" fill="#acacac"/><path d="M3.75,16.31,10,10,8.91,8.93,3.75,16.31Z" transform="translate(0 -0.07)" fill="#eee"/></svg>